<svg xmlns="http://www.w3.org/2000/svg" width="29.575" height="31.473" viewBox="0 0 29.575 31.473">
  <g id="_9025861_package_box_icon" data-name="9025861_package_box_icon" transform="translate(2.062 5.881)">
    <rect id="Rectángulo_39" data-name="Rectángulo 39" width="26.24" height="26.24" transform="translate(-0.219 -0.648)" fill="none"/>
    <path id="Trazado_66" data-name="Trazado 66" d="M91.167,58.4V53.159" transform="translate(-73.456 -43.582)" fill="none" stroke="#fff" stroke-linecap="round" stroke-linejoin="round" stroke-width="1"/>
    <path id="Trazado_67" data-name="Trazado 67" d="M52.212,74.6l-9.466,5.377L33.1,74.6" transform="translate(-29.879 -67.63)" fill="none" stroke="#fff" stroke-linecap="round" stroke-linejoin="round" stroke-width="1"/>
    <path id="Trazado_67-2" data-name="Trazado 67" d="M52.212,74.6l-9.466,5.377L33.1,74.6" transform="translate(-29.879 -57.823)" fill="none" stroke="#fff" stroke-linecap="round" stroke-linejoin="round" stroke-width="1"/>
    <line id="Línea_36" data-name="Línea 36" y2="9.523" transform="translate(12.868 12.346)" fill="none" stroke="#fff" stroke-linecap="round" stroke-linejoin="round" stroke-width="1"/>
    <path id="Trazado_67-3" data-name="Trazado 67" d="M4.793,0,0,4.787" transform="translate(15.174 7.509) rotate(120)" fill="none" stroke="#fff" stroke-linecap="round" stroke-linejoin="round" stroke-width="1"/>
    <path id="Trazado_67-4" data-name="Trazado 67" d="M4.793,0,0,4.787" transform="translate(5.553 2.818) rotate(120)" fill="none" stroke="#fff" stroke-linecap="round" stroke-linejoin="round" stroke-width="1"/>
    <path id="Trazado_67-5" data-name="Trazado 67" d="M0,0,.8,10.677" transform="translate(11.051 5.075) rotate(120)" fill="none" stroke="#fff" stroke-linecap="round" stroke-linejoin="round" stroke-width="1"/>
    <path id="Trazado_67-6" data-name="Trazado 67" d="M4.413,0,0,4.929" transform="translate(26.344 4.844) rotate(152)" fill="none" stroke="#fff" stroke-linecap="round" stroke-linejoin="round" stroke-width="1"/>
    <path id="Trazado_67-7" data-name="Trazado 67" d="M0,0,.376,10.787" transform="translate(24.057 0.219) rotate(120)" fill="none" stroke="#fff" stroke-linecap="round" stroke-linejoin="round" stroke-width="1"/>
    <path id="Trazado_67-8" data-name="Trazado 67" d="M0,0,.164,11.091" transform="translate(22.464 6.98) rotate(120)" fill="none" stroke="#fff" stroke-linecap="round" stroke-linejoin="round" stroke-width="1"/>
    <path id="Trazado_67-9" data-name="Trazado 67" d="M4.793,0,0,4.787" transform="translate(16.656 -0.529) rotate(152)" fill="none" stroke="#fff" stroke-linecap="round" stroke-linejoin="round" stroke-width="1"/>
    <path id="Trazado_67-10" data-name="Trazado 67" d="M8.209,0,3.849,2.517,0,4.74" transform="translate(26.581 9.559) rotate(120)" fill="none" stroke="#fff" stroke-linecap="round" stroke-linejoin="round" stroke-width="1"/>
    <path id="Trazado_67-11" data-name="Trazado 67" d="M8.475,0,4.413,2.345,0,4.893" transform="translate(7.347 9.36) rotate(120)" fill="none" stroke="#fff" stroke-linecap="round" stroke-linejoin="round" stroke-width="1"/>
    <path id="Trazado_67-12" data-name="Trazado 67" d="M4.073,2.585,0,0" transform="translate(12.777 1.576) rotate(120)" fill="none" stroke="#fff" stroke-linecap="round" stroke-linejoin="round" stroke-width="1"/>
  </g>
</svg>