<svg xmlns="http://www.w3.org/2000/svg" width="26.842" height="30" viewBox="0 0 26.842 30">
  <path id="assignment_return_24dp_FFFFFF_FILL0_wght300_GRAD0_opsz24" d="M152.188-882.237h5.818a1.146,1.146,0,0,0,.844-.34,1.146,1.146,0,0,0,.34-.844,1.146,1.146,0,0,0-.34-.844,1.146,1.146,0,0,0-.844-.34h-5.818l2.089-2.089a1.13,1.13,0,0,0,.336-.812,1.143,1.143,0,0,0-.36-.852,1.134,1.134,0,0,0-.832-.343,1.134,1.134,0,0,0-.832.343l-3.938,3.938a1.37,1.37,0,0,0-.428,1,1.37,1.37,0,0,0,.428,1l3.938,3.938a1.175,1.175,0,0,0,.812.347,1.1,1.1,0,0,0,.852-.347,1.134,1.134,0,0,0,.343-.832,1.134,1.134,0,0,0-.343-.832ZM142.854-870a2.751,2.751,0,0,1-2.018-.836,2.751,2.751,0,0,1-.836-2.018v-21.133a2.751,2.751,0,0,1,.836-2.018,2.751,2.751,0,0,1,2.018-.836h7.026a3.491,3.491,0,0,1,1.148-2.236,3.4,3.4,0,0,1,2.392-.922,3.425,3.425,0,0,1,2.408.922,3.425,3.425,0,0,1,1.132,2.236h7.026a2.751,2.751,0,0,1,2.018.836,2.751,2.751,0,0,1,.836,2.018v21.133a2.751,2.751,0,0,1-.836,2.018,2.751,2.751,0,0,1-2.018.836Zm0-2.368h21.133a.463.463,0,0,0,.334-.152.463.463,0,0,0,.152-.334v-21.133a.463.463,0,0,0-.152-.334.463.463,0,0,0-.334-.152H142.854a.464.464,0,0,0-.334.152.464.464,0,0,0-.152.334v21.133a.464.464,0,0,0,.152.334A.464.464,0,0,0,142.854-872.368Zm10.567-23.138a1.15,1.15,0,0,0,.849-.336,1.15,1.15,0,0,0,.336-.849,1.15,1.15,0,0,0-.336-.849,1.15,1.15,0,0,0-.849-.336,1.15,1.15,0,0,0-.849.336,1.15,1.15,0,0,0-.336.849,1.15,1.15,0,0,0,.336.849A1.15,1.15,0,0,0,153.421-895.506Zm-11.053,23.138v0Z" transform="translate(-140 900)" fill="#fff"/>
</svg>