<svg xmlns="http://www.w3.org/2000/svg" width="28.548" height="25" viewBox="0 0 28.548 25">
  <path id="warning_24dp_FFFFFF_FILL0_wght300_GRAD0_opsz24" d="M102.331-778.84a1.29,1.29,0,0,1-.688-.187,1.32,1.32,0,0,1-.474-.494,1.439,1.439,0,0,1-.194-.659,1.228,1.228,0,0,1,.191-.7l12.9-22.276a1.352,1.352,0,0,1,.523-.514,1.4,1.4,0,0,1,.662-.167,1.4,1.4,0,0,1,.662.167,1.352,1.352,0,0,1,.523.514l12.9,22.276a1.228,1.228,0,0,1,.191.7,1.439,1.439,0,0,1-.194.659,1.32,1.32,0,0,1-.474.494,1.29,1.29,0,0,1-.688.187Zm1.543-2.26h22.746l-11.373-19.583Zm11.373-1.8a1.177,1.177,0,0,0,.867-.35,1.177,1.177,0,0,0,.35-.867,1.177,1.177,0,0,0-.35-.867,1.178,1.178,0,0,0-.867-.35,1.178,1.178,0,0,0-.867.35,1.177,1.177,0,0,0-.35.867,1.177,1.177,0,0,0,.35.867A1.177,1.177,0,0,0,115.247-782.9Zm0-3.94a1.092,1.092,0,0,0,.8-.325,1.094,1.094,0,0,0,.325-.805v-5.272a1.092,1.092,0,0,0-.325-.8,1.094,1.094,0,0,0-.805-.325,1.092,1.092,0,0,0-.8.325,1.093,1.093,0,0,0-.325.8v5.272a1.094,1.094,0,0,0,.325.805A1.094,1.094,0,0,0,115.248-786.835ZM115.247-790.891Z" transform="translate(-100.973 803.84)" fill="#fff"/>
</svg>