<svg xmlns="http://www.w3.org/2000/svg" width="30" height="30" viewBox="0 0 30 30">
  <path id="change_circle_24dp_FFFFFF_FILL0_wght300_GRAD0_opsz24" d="M115.711-839.27a8.48,8.48,0,0,1-2.6-.352,5.115,5.115,0,0,1-2.185-1.3,5.778,5.778,0,0,1-1.257-1.86,5.6,5.6,0,0,1-.437-2.191,6.823,6.823,0,0,1,.054-.876,4.008,4.008,0,0,1,.2-.836,1.079,1.079,0,0,0-.02-.758.914.914,0,0,0-.49-.527.9.9,0,0,0-.73.007.865.865,0,0,0-.49.542,8.4,8.4,0,0,0-.3,1.192,7.023,7.023,0,0,0-.107,1.231,7.45,7.45,0,0,0,.589,2.929,7.7,7.7,0,0,0,1.664,2.47,6.57,6.57,0,0,0,2.711,1.7,10.739,10.739,0,0,0,3.216.541l-1.1,1.1a.924.924,0,0,0-.287.655.894.894,0,0,0,.287.669.914.914,0,0,0,.662.295.915.915,0,0,0,.662-.295l2.466-2.466a1.37,1.37,0,0,0,.428-1,1.369,1.369,0,0,0-.428-1l-2.466-2.466a.922.922,0,0,0-.654-.287.9.9,0,0,0-.669.287.914.914,0,0,0-.295.662.914.914,0,0,0,.295.662Zm-1.43-11.484a9.141,9.141,0,0,1,2.613.377,5.112,5.112,0,0,1,2.2,1.3,5.773,5.773,0,0,1,1.257,1.86,5.594,5.594,0,0,1,.437,2.191,6.775,6.775,0,0,1-.055.876,4.007,4.007,0,0,1-.2.836,1.114,1.114,0,0,0,.02.77.912.912,0,0,0,.49.539.916.916,0,0,0,.73,0,.84.84,0,0,0,.491-.534,8.217,8.217,0,0,0,.3-1.211,7.39,7.39,0,0,0,.106-1.251,7.728,7.728,0,0,0-.565-2.928,7.457,7.457,0,0,0-1.664-2.494,6.646,6.646,0,0,0-2.736-1.686,10.457,10.457,0,0,0-3.216-.5l1.12-1.12a.969.969,0,0,0,.263-.654.9.9,0,0,0-.287-.669.915.915,0,0,0-.662-.295.915.915,0,0,0-.662.295l-2.466,2.465a1.37,1.37,0,0,0-.428,1,1.369,1.369,0,0,0,.428,1l2.466,2.466a.924.924,0,0,0,.654.287.9.9,0,0,0,.669-.287.915.915,0,0,0,.294-.662.915.915,0,0,0-.294-.662ZM115-830a14.584,14.584,0,0,1-5.846-1.182,15.171,15.171,0,0,1-4.763-3.208,15.17,15.17,0,0,1-3.208-4.763A14.582,14.582,0,0,1,100-845a14.581,14.581,0,0,1,1.183-5.846,15.169,15.169,0,0,1,3.208-4.763,15.169,15.169,0,0,1,4.763-3.208A14.582,14.582,0,0,1,115-860a14.582,14.582,0,0,1,5.846,1.183,15.169,15.169,0,0,1,4.763,3.208,15.17,15.17,0,0,1,3.208,4.763A14.581,14.581,0,0,1,130-845a14.582,14.582,0,0,1-1.183,5.847,15.17,15.17,0,0,1-3.208,4.763,15.171,15.171,0,0,1-4.763,3.208A14.583,14.583,0,0,1,115-830Zm0-2.368a12.192,12.192,0,0,0,8.961-3.671A12.191,12.191,0,0,0,127.632-845a12.191,12.191,0,0,0-3.671-8.96A12.191,12.191,0,0,0,115-857.631a12.191,12.191,0,0,0-8.961,3.671,12.191,12.191,0,0,0-3.671,8.96,12.191,12.191,0,0,0,3.671,8.961A12.192,12.192,0,0,0,115-832.368ZM115-845Z" transform="translate(-100 860)" fill="#fff"/>
</svg>