<svg xmlns="http://www.w3.org/2000/svg" width="31.092" height="31.092" viewBox="0 0 31.092 31.092">
  <g id="Punto_Droop" data-name="Punto Droop" transform="translate(-1232 -460)">
    <g id="Grupo_2694" data-name="Grupo 2694" transform="translate(1233.727 461.727)">
      <path id="Trazado_4220" data-name="Trazado 4220" d="M-1534.188-387.824l-1.589-4.915a.089.089,0,0,0-.084-.061h-9.5c-.01.019-.019.038-.03.056l-.337.584h9.4a.089.089,0,0,1,.084.061l1.175,3.635a.089.089,0,0,1-.084.116h-12.726a.089.089,0,0,0-.077.044.089.089,0,0,1-.153,0h0a.089.089,0,0,0-.077-.044h-12.479a.089.089,0,0,1-.078-.13l1.942-3.635a.089.089,0,0,1,.078-.047h8.387l-.337-.584c-.011-.018-.02-.037-.03-.056h-8.4a.089.089,0,0,0-.078.047l-2.625,4.915a.089.089,0,0,0,.078.131h1.031v2.346a1.823,1.823,0,0,0,1.512,1.794v12.06a1.18,1.18,0,0,0,1.154,1.2h12.788v-10.132h5.073v10.132h2.146a1.18,1.18,0,0,0,1.154-1.2v-12.016a1.822,1.822,0,0,0,1.741-1.818v-2.366h.862A.089.089,0,0,0-1534.188-387.824Zm-7.217.116h2.63v2.366a1.317,1.317,0,0,1-1.315,1.315,1.317,1.317,0,0,1-1.315-1.315Zm-3.106,2.366v-2.366h2.6v2.366a1.317,1.317,0,0,1-1.315,1.315A1.275,1.275,0,0,1-1544.511-385.342Zm-3.135-2.366h2.6v2.366a1.275,1.275,0,0,1-1.286,1.315,1.317,1.317,0,0,1-1.315-1.315Zm-3.144,0h2.63v2.366a1.317,1.317,0,0,1-1.315,1.315h0a1.317,1.317,0,0,1-1.315-1.315Zm-3.135,0h2.63v2.366a1.317,1.317,0,0,1-1.315,1.315,1.317,1.317,0,0,1-1.315-1.315Zm-3.135,2.346v-2.346h2.63v2.366a1.317,1.317,0,0,1-1.315,1.315,1.317,1.317,0,0,1-1.315-1.315Zm-3.135,0v-2.346h2.63v2.346a1.316,1.316,0,0,1-1.315,1.315A1.317,1.317,0,0,1-1560.2-385.362Zm22.167,14.444h-1.506V-381.05h-6.353v10.133h-12.148a.557.557,0,0,1-.514-.59v-12.065a1.825,1.825,0,0,0,1.23-.856,1.821,1.821,0,0,0,1.573.906,1.82,1.82,0,0,0,1.568-.9,1.821,1.821,0,0,0,1.568.9,1.82,1.82,0,0,0,1.567-.9,1.821,1.821,0,0,0,1.568.9,1.821,1.821,0,0,0,1.572-.9,1.821,1.821,0,0,0,1.572.9,1.821,1.821,0,0,0,1.553-.872,1.82,1.82,0,0,0,1.553.872,1.82,1.82,0,0,0,1.568-.9,1.821,1.821,0,0,0,1.568.9,1.821,1.821,0,0,0,1.568-.9,1.829,1.829,0,0,0,1.007.807v12.1A.557.557,0,0,1-1538.028-370.918Zm2.389-14.425a1.317,1.317,0,0,1-1.315,1.315,1.316,1.316,0,0,1-1.315-1.315v-2.366h2.63Z" transform="translate(1561.82 397.317)" fill="#fff" stroke="#fff" stroke-width="0.5"/>
      <g id="Grupo_2692" data-name="Grupo 2692" transform="translate(10.736)">
        <path id="Trazado_4221" data-name="Trazado 4221" d="M-1317.889-313.311l.1-.177h-.2Z" transform="translate(1320.942 322.457)" fill="#fff" stroke="#fff" stroke-width="0.5"/>
        <path id="Trazado_4222" data-name="Trazado 4222" d="M-1364.865-471.754a3.052,3.052,0,0,0-3.449-1.424,2.832,2.832,0,0,0-1.375.81,3.046,3.046,0,0,0-.487,3.607c.01.019.019.038.03.056l.337.584,2.2,3.812h.2l2.2-3.812.337-.584c.011-.018.02-.037.03-.056A3.016,3.016,0,0,0-1364.865-471.754Zm-1.076,3.633-1.564,2.709-1.564-2.709-.369-.64-.129-.223a2.453,2.453,0,0,1-.07-2.365,2.386,2.386,0,0,1,2.062-1.288,2.424,2.424,0,0,1,2.156,1.2,2.385,2.385,0,0,1,0,2.41l-.152.264Z" transform="translate(1370.558 473.278)" fill="#fff" stroke="#fff" stroke-width="0.5"/>
        <path id="Trazado_4223" data-name="Trazado 4223" d="M-1338.422-445.373a1.335,1.335,0,0,0-1.5,1.5,1.338,1.338,0,0,0,1.149,1.149,1.336,1.336,0,0,0,1.5-1.5A1.338,1.338,0,0,0-1338.422-445.373Zm-.056,2.007a.7.7,0,0,1-.8-.8.694.694,0,0,1,.566-.566.7.7,0,0,1,.8.8A.694.694,0,0,1-1338.478-443.366Z" transform="translate(1341.649 446.95)" fill="#fff" stroke="#fff" stroke-width="0.5"/>
      </g>
      <g id="Grupo_2693" data-name="Grupo 2693" transform="translate(5.605 16.267)">
        <path id="Trazado_4224" data-name="Trazado 4224" d="M-1455.258-178.536h-6.71v-4.943h6.71Zm-6.07-.64h5.43v-3.663h-5.43Z" transform="translate(1461.968 183.479)" fill="#fff" stroke="#fff" stroke-width="0.5"/>
      </g>
    </g>
    <rect id="Rectángulo_1891" data-name="Rectángulo 1891" width="31.092" height="31.092" transform="translate(1232 460)" fill="none"/>
  </g>
</svg>