<svg xmlns="http://www.w3.org/2000/svg" width="20" height="25.333" viewBox="0 0 20 25.333">
  <path id="find_in_page_24dp_FFFFFF_FILL0_wght300_GRAD0_opsz24" d="M182.41-834.667a2.327,2.327,0,0,1-1.71-.7,2.327,2.327,0,0,1-.7-1.71V-857.59a2.327,2.327,0,0,1,.7-1.71,2.327,2.327,0,0,1,1.71-.7h10.164a2.381,2.381,0,0,1,1.026.227,2.222,2.222,0,0,1,.815.65l5.015,6.018a2.634,2.634,0,0,1,.419.725,2.284,2.284,0,0,1,.15.821v14.072a1.1,1.1,0,0,1-.74,1.112,1.118,1.118,0,0,1-1.309-.269l-5.464-5.423a4.228,4.228,0,0,1-1.176.556,4.685,4.685,0,0,1-1.311.177,4.493,4.493,0,0,1-3.3-1.371,4.493,4.493,0,0,1-1.371-3.3,4.493,4.493,0,0,1,1.371-3.3,4.493,4.493,0,0,1,3.3-1.371,4.493,4.493,0,0,1,3.3,1.371,4.493,4.493,0,0,1,1.371,3.3,4.624,4.624,0,0,1-.183,1.337,4.2,4.2,0,0,1-.55,1.15L198-839.379v-12.354L192.733-858H182.41a.391.391,0,0,0-.282.128.391.391,0,0,0-.128.282v20.513a.391.391,0,0,0,.128.282.391.391,0,0,0,.282.128H193.7a.9.9,0,0,1,.75.312,1.072,1.072,0,0,1,.25.686,1.082,1.082,0,0,1-.25.688.9.9,0,0,1-.75.314Zm7.59-8.667a2.568,2.568,0,0,0,1.883-.783,2.568,2.568,0,0,0,.783-1.883,2.568,2.568,0,0,0-.783-1.883,2.568,2.568,0,0,0-1.883-.783,2.568,2.568,0,0,0-1.883.783,2.568,2.568,0,0,0-.783,1.883,2.568,2.568,0,0,0,.783,1.883A2.568,2.568,0,0,0,190-843.333ZM190-846.333ZM190-846.333Z" transform="translate(-180 860)" fill="#fff"/>
</svg>