<svg xmlns="http://www.w3.org/2000/svg" width="27.848" height="22.414" viewBox="0 0 27.848 22.414">
  <g id="Capa_2" data-name="Capa 2" transform="translate(0.25 0.251)">
    <g id="Capa_7" data-name="Capa 7" transform="translate(0 0)">
      <path id="Trazado_3752" data-name="Trazado 3752" d="M27.154,2.881.3,0A.234.234,0,0,0,.086.074.271.271,0,0,0,0,.271V21.64a.271.271,0,0,0,.271.271H27.08a.258.258,0,0,0,.258-.271V3.176a.259.259,0,0,0-.185-.3ZM16,15.744H11.3a.271.271,0,0,0-.222.258v3.484H.529V14.439h26.33v5.047H16.285V16A.271.271,0,0,0,16,15.744ZM4.69,5.232V6.549H3.274V5.232Zm1.957,0V6.549H5.219V5.232Zm1.969,0V6.549H7.176V5.232Zm1.957,0V6.549H9.134V5.232Zm1.957,0V6.549H11.078V5.232Zm1.945,0V6.549h-1.44V5.232Zm1.957,0V6.549h-1.44V5.232Zm1.957,0V6.549H16.938V5.232Zm1.945,0V6.549h-1.44V5.232Zm1.957,0V6.549h-1.44V5.232Zm1.957,0V6.549H22.8V5.232Zm2.634,0V6.549h-2.13V5.232Zm-4.062,8.69V12.605h1.428v1.317Zm-1.945,0V12.605h1.416v1.317Zm-1.957,0V12.605H20.31v1.317Zm-1.957,0V12.605H18.39v1.317Zm-1.945,0V12.605h1.416v1.317Zm-1.957,0V12.605h1.416v1.317Zm-1.982,0V12.605h1.428v1.317Zm-1.945,0V12.605h1.416v1.317Zm-1.957,0V12.605h1.44v1.317Zm-1.957,0V12.605H6.647v1.317Zm-1.945,0V12.605H4.69v1.317Zm-2.745,0V12.605h2.2v1.317Zm24.225-1.317h2.1v1.317h-2.1ZM.529,12.064V10.734h26.33v1.329ZM4.69,8.888V10.2H3.274V8.888Zm1.957,0V10.2H5.219V8.888Zm1.969,0V10.2H7.176V8.888Zm1.957,0V10.2H9.134V8.888Zm1.957,0V10.2H11.078V8.888Zm1.945,0V10.2h-1.44V8.888Zm1.957,0V10.2h-1.44V8.888Zm1.957,0V10.2H16.938V8.888Zm1.945,0V10.2h-1.44V8.888Zm1.957,0V10.2h-1.44V8.888Zm1.957,0V10.2H22.8V8.888ZM2.733,10.2H.529V8.888h2.2Zm22.021,0V8.888h2.1V10.2ZM.529,8.346V7.115h26.33V8.346Zm2.2-1.8H.529V5.232h2.2ZM26.859,3.386v1.3H.529V.567ZM.529,20.028H11.078v1.354H.529Zm11.078,1.354V16.273h4.148v5.108Zm4.727,0V20.028H26.908v1.354Z" transform="translate(0 0.002)" fill="#fff" stroke="#fff" stroke-width="0.5"/>
    </g>
  </g>
</svg>
