<svg xmlns="http://www.w3.org/2000/svg" width="27.848" height="19.531" viewBox="0 0 27.848 19.531">
  <g id="Capa_2" data-name="Capa 2" transform="translate(0.255 -2.633)">
    <g id="Capa_7" data-name="Capa 7" transform="translate(0 0)">
      <path id="Trazado_3752" data-name="Trazado 3752" d="M.189,2.881l26.858.1a.234.234,0,0,1,.209.074.271.271,0,0,1,.086.2V21.64a.271.271,0,0,1-.271.271H.263A.258.258,0,0,1,0,21.64V3.176a.259.259,0,0,1,.185-.3ZM11.341,15.744h4.7a.271.271,0,0,1,.222.258v3.484H26.813V14.439H.484v5.047H11.058V16a.271.271,0,0,1,.283-.258ZM22.653,5.232V6.549h1.416V5.232Zm-1.957,0V6.549h1.428V5.232Zm-1.969,0V6.549h1.44V5.232Zm-1.957,0V6.549h1.44V5.232Zm-1.957,0V6.549h1.452V5.232Zm-1.945,0V6.549h1.44V5.232Zm-1.957,0V6.549h1.44V5.232Zm-1.957,0V6.549h1.452V5.232Zm-1.945,0V6.549h1.44V5.232Zm-1.957,0V6.549h1.44V5.232Zm-1.957,0V6.549H4.546V5.232Zm-2.634,0V6.549H2.589V5.232Zm4.062,8.69V12.605H3.094v1.317Zm1.945,0V12.605H5.051v1.317Zm1.957,0V12.605H7.033v1.317Zm1.957,0V12.605H8.953v1.317Zm1.945,0V12.605H10.91v1.317Zm1.957,0V12.605H12.867v1.317Zm1.982,0V12.605H14.837v1.317Zm1.945,0V12.605H16.794v1.317Zm1.957,0V12.605h-1.44v1.317Zm1.957,0V12.605H20.7v1.317Zm1.945,0V12.605H22.653v1.317Zm2.745,0V12.605h-2.2v1.317ZM2.589,12.605H.484v1.317h2.1Zm24.224-.542V10.734H.484v1.329Zm-4.16-3.176v1.317h1.416V8.888Zm-1.957,0v1.317h1.428V8.888Zm-1.969,0v1.317h1.44V8.888Zm-1.957,0v1.317h1.44V8.888Zm-1.957,0v1.317h1.452V8.888Zm-1.945,0v1.317h1.44V8.888Zm-1.957,0v1.317h1.44V8.888Zm-1.957,0v1.317h1.452V8.888Zm-1.945,0v1.317h1.44V8.888Zm-1.957,0v1.317h1.44V8.888Zm-1.957,0v1.317H4.546V8.888ZM24.61,10.205h2.2V8.888h-2.2Zm-22.021,0V8.888H.484v1.317ZM26.813,8.346V7.115H.484V8.346Zm-2.2-1.8h2.2V5.232h-2.2ZM.484,3.386v1.3H26.813V3.546ZM26.813,20.028H16.265v1.354H26.813ZM15.735,21.382V16.274H11.587v5.108Zm-4.727,0V20.028H.435v1.354Z" transform="translate(0 0.002)" fill="#fff" stroke="#fff" stroke-width="0.5"/>
    </g>
  </g>
</svg>
