<svg id="Layer_28" data-name="Layer 28" xmlns="http://www.w3.org/2000/svg" width="30" height="30" viewBox="0 0 30 30">
  <path id="Trazado_63" data-name="Trazado 63" d="M16,31A15,15,0,1,1,31,16,15,15,0,0,1,16,31ZM16,3A13,13,0,1,0,29,16,13,13,0,0,0,16,3Z" transform="translate(-1 -1)" fill="#fff"/>
  <path id="Trazado_64" data-name="Trazado 64" d="M13.67,22a1,1,0,0,1-.73-.32l-4.67-5a1,1,0,0,1,1.46-1.36l3.94,4.21,8.6-9.21a1,1,0,1,1,1.46,1.36l-9.33,10A1,1,0,0,1,13.67,22Z" transform="translate(-1 -1)" fill="#fff"/>
</svg>